# xmcd
#
# Track frame offsets:
#	150
#	12019
#	29000
#	44884
#	84780
#	104821
#	121203
#	130556
#	142813
#	152818
#	163215
#	186627
#	209608
#	224813
#	249895
#	264815
#
# Disc length: 3731 seconds
#
# Revision: 0
# Processed by: cddbd v1.5.2PL0 Copyright (c) Steve Scherf et al.
# Submitted via: EZCDAudioConverter 2.1.7.1
#
DISCID=e90e9110
DTITLE=V/A - Venezuela 70
DYEAR=1900
DGENRE=
TTITLE0=Vytas Brenner - Araguaney
TTITLE1=Pablo Schneider - Amor En Llamas
TTITLE2=Un Dos Tres Y Fuera - Machu Picchu
TTITLE3=Miguel Angel Fuster - Polvo Lunar
TTITLE4=Angel Rada - Basheeba
TTITLE5=Fernando Yvosky - Barcos De Pape
TTITLE6=Un Dos Tres Y Fuera - Son De Tambor Y San Juan
TTITLE7=Vytas Brenner - Bang Going Gone
TTITLE8=Aldemaro Romero Y Su Onda Nueva - Irene
TTITLE9=Miguel Angel Fuster - Dame De Comer
TTITLE10=Un Dos Tres Y Fuera - San Juan, Tambor Y Fuera
TTITLE11=Ofrenda Vytas Brenner - Caracas Para Locos
TTITLE12=Grupo C.I.M. - Joropo No. 1
TTITLE13=Angel Rada - Panico A Las 5 A.M.
TTITLE14=Apocalipsis - Ayudame A Encontrar Mi Camino
TTITLE15=Miguel Angel Fuster - La Quema De Judas
EXTD=
EXTT0=
EXTT1=
EXTT2=
EXTT3=
EXTT4=
EXTT5=
EXTT6=
EXTT7=
EXTT8=
EXTT9=
EXTT10=
EXTT11=
EXTT12=
EXTT13=
EXTT14=
EXTT15=
PLAYORDER=
